<?xml version="1.0" encoding="UTF-8"?>
<svg id="Camada_2" xmlns="http://www.w3.org/2000/svg" viewBox="0 0 605.42 336.17">
  <defs>
    <style>
      .cls-1 {
        fill: #d6d4cd;
      }

      .cls-2 {
        fill: #45251d;
      }

      .cls-3 {
        fill: #535353;
      }

      .cls-4 {
        fill: #4f2b22;
      }

      .cls-5 {
        fill: #5c3227;
      }

      .cls-6 {
        fill: #69c3f5;
      }

      .cls-7 {
        fill: #636363;
      }

      .cls-8 {
        fill: #474747;
      }

      .cls-9 {
        fill: #3daae8;
      }

      .cls-10 {
        fill: #3aa1db;
      }

      .cls-11 {
        fill: #40b4f5;
      }

      .cls-12 {
        fill: gray;
      }

      .cls-13 {
        fill: #151515;
      }

      .cls-14 {
        fill: #f4ad2e;
      }

      .cls-15 {
        fill: #e8a120;
      }

      .cls-16 {
        fill: #e15936;
      }
    </style>
  </defs>
  <g id="Camada_1-2" data-name="Camada_1">
    <g>
      <path class="cls-14" d="M605.42,287.32v-25.96H89.01c-11.13,0-20.17-9.05-20.17-20.17v-27.77h-26.05v27.77c0,25.42,20.72,46.13,46.22,46.13h516.42Z"/>
      <path class="cls-16" d="M68.84,336.17v-28.68c0-25.51-20.63-46.13-46.13-46.13H0v25.96h22.7c10.4,0,19,7.96,20.08,18.09.09.72.09,1.36.09,2.08s0,1.36-.09,2.08v26.6h26.05Z"/>
    </g>
    <g>
      <polygon class="cls-14" points="187.67 121.45 193.25 122.93 193.53 125.44 187.67 121.45"/>
      <path class="cls-13" d="M84.73,83.28c-2.97-1.06-1.96-2.69-4.03-2.27s-1.34-.93-3.24-1.48-2.48.62-3.69.24-2.04-.77-3.71-.14-2.39.52-2.53.25-.38-1.34-1.17-1.34-3.24,1-2.83-2.03,1.58-2.03-.38-4.03-.59-3,.55-3.58,1.96-2.76.21-3.79-2.41-2.93-1-4.1,4.34-3.27,2.14-5.65-2.21-5.03.41-6.55,5.44-.86,4.62-4.34-1.69-4.89,1.1-6.27,5.03-2.07,3.79-4.51-3.41-5.75-.28-7.03,7.34-1.55,6.72-5.82-.76-7.51,1.96-8.06,6.17,1.93,6.79-1.58,2.1-7.1,6.51-6.34,6.48,1.21,8.82-.52,5.13-3.45,7.92-.45c2.79,3,7.3,4.2,9.58,2.24s8.79-8.3,13.33-5.31c4.55,3,3.1,9.06,8.58,9.65s7.79,2.38,7.92,5.34-5.65,11.16-1.31,12.23,8.34,4.13,7.37,7.61c-.96,3.48-3.89,5.48-2.76,7.72s6.72,4.17,5.13,6.82-8.86,3.48-6.96,6.2,8.75,6.03,4.96,9.65-9.61,3.45-7.92,7.55,2.76,10.51-1.65,9.72-8.61-1.45-9.1-4.75-2.14-5.65-4.72-3.79-7.27,3.72-7.96,2.48-1.48-.96-1.6-1.12-41.61,7.18-41.61,7.18Z"/>
      <path class="cls-5" d="M126.34,76.09s-6.82,0-6.51-2.02.61-9.77,3.25-10.23c0,0,5.07,1.65,7.34,1.71s3.98-1.14,4.03-1.71.52-4.7.52-4.7c0,0,2.89-1.45,1.76-3.46,0,0,1.55-1.71,1.34-2.17s-.89-1.96.02-2.33,5.56-.47,3.7-3.36-3.05-5.69-3.05-5.69c0,0,1.19-1.19,1.34-5.63,0,0,.78-2.02.05-5.01s-1.65-6.98-1.65-6.98c0,0-1.14-4.7-3.57-6s-11.84-6.87-18.61-2.02-14.11,9.46-13.08,17.93c1.03,8.48-7.13,34.14-7.13,34.14l19.59,10.36,10.08,1.03.57-3.88Z"/>
      <path class="cls-5" d="M282.47,227.27s12.51,14.57,14.57,21.81c.6,2.1,1.28,4.09,1.94,5.85,1.62,4.31,3.13,7.28,3.13,7.28l5.48,7.24,12.4-11.37-5.17-4.24-6.2-14.06-8.06-21.6-18.09,9.1Z"/>
      <path class="cls-13" d="M297.77,253.21s-2.69,4.75-2.53,8.01-.36,10.54,1.65,11.53,5.43,2.53,8.42,1.76,7.24-.1,10.13,2.33,6.31,5.32,14.01,4.34c7.7-.98,15.82-3.26,15.82-3.26,0,0,5.53-2.53,3.93-5.22s-1.34-3.57-8.63-6.1-9.41-3.88-12.4-7.29-8.27-7.7-10.8-8.22-2.12,2.48-4.19,2.07-6-1.03-6.62,2.17-7.91-1.71-8.79-2.12Z"/>
      <path class="cls-5" d="M303.25,174.24s22.64,44.5,27.29,46.52,3.88,11.32,3.88,11.32c0,0-13.18,4.96-13.64,4.81s-11.94-9.15-11.94-9.15l-20-47.6,14.42-5.89Z"/>
      <path class="cls-13" d="M307.61,220.29s2.22,16.13,3.44,18.92,2.15,5.74,3.39,6.2,5.63.98,6.62.88,8.37-3.1,15.04,1.29,12.2,5.22,15.97,4.19c3.77-1.03,17.62-8.73,16.49-11.16s-1.91-4.6-6.67-5.69-24.29-11.06-26.31-12.87-5.19-3.56-6.08-1.57-3.12,2.19-4.05,2.24-3.82,1.09-3.93,3.93-8.79,2.27-13.9-6.36Z"/>
      <path class="cls-13" d="M137.35,215.49c0,1.24-3.72,24.39-3.72,24.39h6l1.86-1.65,3.72-22.74h-7.86Z"/>
      <polygon class="cls-13" points="252.5 208.66 254.36 251.04 258.08 252.08 261.8 251.04 261.8 203.08 252.5 208.66"/>
      <path class="cls-13" d="M228.31,212.38s29.36-12.82,33.49-17.16l2.69,7.86-36.18,23.36v-14.06Z"/>
      <path class="cls-3" d="M111.92,215.49l112.67,2.69,40.93-21.5-2.27-29.98-100.68-10.96-61.19-83.31-35.97,8.27s-12.61,1.65-10.54,11.37,9.51,52.72,57.06,123.42Z"/>
      <path class="cls-8" d="M117.71,192.33l-45.48-92.62s-8.6-20.41-12.44-17.21-6.21,4.62-4.11,13.45c2.1,8.83,5.8,45.59,56.25,119.53l5.79-23.15Z"/>
      <path class="cls-7" d="M118.94,199.99v.2s.51-.03,1.42-.08v-.2c-.92.05-1.42.08-1.42.08M121.76,199.83v.2c.44-.02.91-.05,1.43-.08v-.2c-.52.03-1,.05-1.43.08M124.59,199.67v.2c.46-.02.93-.05,1.43-.08v-.2c-.5.03-.98.05-1.43.08M127.42,199.52v.2c.47-.02.94-.05,1.43-.07v-.2s-1.43.07-1.43.07M130.26,199.38v.2c.47-.02.94-.05,1.42-.07v-.2s-1.42.07-1.42.07M133.09,199.24v.2c.47-.02.95-.05,1.43-.07v-.2s-1.43.07-1.43.07M135.92,199.1v.2c.48-.02.95-.04,1.42-.07v-.2c-.49.02-.96.04-1.42.07M138.75,198.97v.2c.48-.02.95-.04,1.42-.06v-.2c-.48.02-.96.04-1.42.06M141.58,198.84v.2c.48-.02.95-.04,1.42-.06v-.2c-.48.02-.96.04-1.42.06M144.41,198.72v.2c.48-.02.95-.04,1.42-.06v-.2c-.48.02-.95.04-1.42.06M147.24,198.6v.2c.48-.02.95-.04,1.42-.06v-.2c-.48.02-.95.04-1.42.06M150.08,198.48v.2c.48-.02.95-.04,1.42-.05v-.2c-.48.02-.95.04-1.42.05M152.91,198.38v.2c.48-.02.95-.03,1.42-.05v-.2c-.48.02-.95.03-1.42.05M155.74,198.28v.2c.48-.02.95-.03,1.42-.05v-.2c-.48.02-.95.03-1.42.05M158.58,198.18v.2c.48-.01.95-.03,1.42-.04v-.2c-.48.01-.95.03-1.42.04M161.41,198.1v.2c.48-.01.95-.03,1.42-.04v-.2c-.47.01-.95.02-1.42.04M164.24,198.03v.2c.48-.01.95-.02,1.42-.03v-.2c-.47,0-.95.02-1.42.03M167.08,197.97v.2c.48,0,.95-.02,1.42-.02v-.2c-.47,0-.94.02-1.42.02M169.91,197.93v.2c.48,0,.95-.01,1.42-.01v-.2c-.47,0-.94,0-1.42.01M172.75,197.9v.2c.48,0,.96,0,1.42,0v-.2c-.46,0-.93,0-1.42,0M175.59,197.91v.2c.49,0,.96.01,1.42.02v-.2c-.45,0-.93-.01-1.42-.02M178.42,197.96v.2c.49.01.96.03,1.41.05v-.2c-.43-.02-.91-.04-1.41-.05M181.26,198.08v.2c.18.01.36.03.53.04.28.02.57.04.86.07v-.2c-.28-.02-.57-.04-.85-.07-.18-.01-.36-.03-.55-.04M184.08,198.29v.2c.45.03.92.06,1.4.08v-.2c-.47-.03-.95-.05-1.4-.08M186.91,198.44v.2c.45.02.93.04,1.41.06v-.2c-.47-.02-.94-.04-1.41-.06M189.74,198.55v.2c.46.02.93.03,1.41.04v-.2c-.47-.01-.94-.03-1.41-.04M192.57,198.62v.2c.46.01.94.02,1.41.03v-.2c-.47,0-.95-.02-1.41-.03M195.4,198.67v.2c.47,0,.94.01,1.41.01v-.2c-.47,0-.95,0-1.41-.01M198.24,198.69v.2c.47,0,.94,0,1.42,0v-.2c-.47,0-.95,0-1.42,0M201.07,198.69v.2c.47,0,.94,0,1.42-.01v-.2c-.48,0-.95,0-1.42.01M203.9,198.66v.2c.47,0,.95-.01,1.42-.02v-.2c-.48,0-.95.02-1.42.02M206.73,198.6v.2c.48-.01.95-.02,1.42-.04v-.2c-.48.01-.95.03-1.42.04M209.56,198.52v.2c.48-.02.95-.03,1.42-.05v-.2c-.48.02-.95.04-1.42.05M212.39,198.41v.2c.48-.02.96-.04,1.42-.07v-.2c-.48.02-.95.05-1.42.07M215.22,198.27v.2c.49-.03.96-.05,1.43-.08v-.2c-.48.03-.95.06-1.43.08M218.05,198.09v.2c.49-.03.96-.07,1.43-.1l-.02-.2c-.47.04-.94.07-1.41.1M220.87,197.87l.02.2c.48-.04.95-.09,1.41-.13l-.02-.2c-.46.04-.93.09-1.41.13M223.69,197.6l.02.2c.48-.05.95-.11,1.41-.16l-.02-.2c-.45.06-.93.11-1.4.16M226.49,197.25l.03.2c.48-.07.95-.14,1.4-.21l-.03-.2c-.45.07-.92.14-1.4.21M229.28,196.81l.04.2c.48-.09.95-.18,1.39-.27l-.04-.2c-.43.09-.9.18-1.38.27M232.04,196.22l.05.2c.19-.05.38-.1.56-.15.26-.08.53-.15.8-.23l-.06-.19c-.27.08-.53.16-.8.23-.18.05-.37.1-.56.15M234.74,195.41l.06.19c.44-.14.89-.29,1.34-.45l-.07-.19c-.45.16-.9.31-1.34.45M237.41,194.49l.07.19c.44-.16.89-.32,1.33-.49l-.07-.19c-.45.17-.89.33-1.33.49M240.06,193.49l.07.19c.44-.17.88-.35,1.32-.53l-.08-.19c-.44.18-.88.36-1.31.53M242.68,192.42l.08.19c.44-.18.87-.37,1.3-.56l-.08-.19c-.43.19-.87.38-1.3.56M245.28,191.3l.08.18c.44-.19.87-.39,1.29-.59l-.08-.18c-.43.2-.86.39-1.29.58M247.85,190.11l.09.18c.44-.21.86-.41,1.28-.61l-.09-.18c-.42.2-.85.41-1.28.61M250.39,188.87l.09.18c.44-.22.86-.43,1.26-.64l-.09-.18c-.41.21-.83.43-1.26.64M252.9,187.57l.1.18c.44-.24.86-.47,1.24-.69l-.1-.18c-.38.22-.8.45-1.24.68M255.35,186.17l.11.17c.49-.3.88-.56,1.18-.79l-.12-.16c-.29.22-.68.48-1.16.78"/>
      <path class="cls-9" d="M240.71,167.11s10.54,6.62,11.78,11.16c1.24,4.55,4.61,13.65,6.2,15.92s9.51,26.05,10.13,27.91,1.65,4.34,1.65,4.34l33.49-13.33s-5.58-22.02-14.06-40.21c-8.48-18.19-13.02-28.53-17.57-30.6s-6.2-3.41-8.37-1.96-13.44,11.58-15.92,16.33c-2.48,4.75-7.34,10.44-7.34,10.44Z"/>
      <path class="cls-6" d="M270.28,224.38s-1.86,1.14-.72,3.82,2.48,5.48,3.82,4.86,6.31-3.41,10.54-5.48,18.38-7.45,20.05-7.44,3.95-2.17,3.63-2.89-1.8-4.92-3.63-5.17-14.78,4.75-17.78,6.1-9.92,3.28-11.37,4.43-4.55,1.77-4.55,1.77Z"/>
      <path class="cls-9" d="M237.42,169.32s9.67,1.4,11.63,4.12.8-.03.8-.03c0,0-1.61-2.22-1.43-2.95s.46-1.57.46-1.57c0,0-2.02-6.96-.55-9.39s.31-2.8-.27-1.75-2.82,2.17-2.82,2.17c0,0-1.45,2.34-2.68,3.99s-4.32,5.07-5.13,5.41Z"/>
      <path class="cls-11" d="M137.35,171.86s3.1,8.68,13.54,9.1c10.44.41,53.85-7.03,61.71-7.13,7.86-.1,23.45-3,24.91-4.13s7.68-6.77,9.37-9.74,2.72-5.81,4.51-7.76,8.83-10.47,11.13-11.38,9.06.28,11.94,3.52,17.52,33.21,17.52,33.21l13.23-7.85-4.55-17.88s-9.92-32.15-11.84-34.94-4.81-12.92-15.14-10.34-25.95,7.44-25.95,7.44l-48.48,17.99-6.72-.1s-68.33,29.67-55.2,40Z"/>
      <path class="cls-1" d="M154.56,173.48c-.29,0-.59,0-.87-.02v-.2c.47.02.93.03,1.42.01v.2c-.18,0-.37,0-.55,0ZM156.53,173.36l-.02-.2c.46-.05.93-.12,1.39-.2l.04.2c-.47.09-.95.15-1.41.21ZM152.27,173.3c-.48-.07-.95-.17-1.4-.3l.05-.2c.44.12.9.22,1.37.29l-.03.2ZM159.33,172.86l-.05-.2c.45-.11.91-.23,1.36-.37l.06.19c-.46.14-.92.26-1.37.37ZM149.52,172.54c-.45-.18-.88-.4-1.28-.64l.1-.17c.4.23.82.44,1.26.62l-.08.19ZM162.06,172.07l-.06-.19c.42-.13.87-.28,1.35-.44l.06.19c-.48.16-.93.3-1.35.44ZM295.51,171.4l-.22-.39.18-.1.22.39-.18.1ZM164.77,171.18l-.06-.19c.43-.14.88-.3,1.35-.45l.06.19c-.46.16-.91.31-1.35.45ZM147.06,171.09c-.69-.57-1-1.01-1.01-1.03l.17-.12s.31.44.98.99l-.13.16ZM167.46,170.27l-.07-.19c.44-.15.88-.3,1.34-.46l.07.19c-.46.16-.91.31-1.34.46ZM294.6,169.77l-.69-1.24.18-.1.69,1.24-.18.1ZM170.15,169.35l-.07-.19c.44-.15.89-.31,1.34-.47l.07.19c-.45.16-.9.31-1.34.47ZM172.83,168.41l-.07-.19,1.34-.47.07.19-1.34.47ZM175.5,167.46l-.07-.19,1.34-.48.07.19-1.34.48ZM293.21,167.28l-.69-1.24.18-.1.69,1.24-.18.1ZM178.18,166.51l-.07-.19,1.34-.48.07.19-1.34.48ZM180.85,165.55l-.07-.19,1.34-.48.07.19-1.34.48ZM291.83,164.8l-.69-1.24.18-.1.69,1.24-.18.1ZM183.52,164.59l-.07-.19,1.34-.48.07.19-1.34.48ZM186.19,163.62l-.07-.19,1.33-.48.07.19-1.33.48ZM188.86,162.65l-.07-.19,1.33-.49.07.19-1.33.49ZM290.46,162.31l-.68-1.24.18-.1.68,1.24-.18.1ZM191.52,161.68l-.07-.19,1.33-.49.07.19-1.33.49ZM194.19,160.71l-.07-.19,1.33-.49.07.19-1.33.49ZM289.09,159.82l-.68-1.25.18-.1.68,1.25-.18.1ZM196.85,159.73l-.07-.19,1.33-.49.07.19-1.33.49ZM199.52,158.75l-.07-.19,1.33-.49.07.19-1.33.49ZM202.18,157.77l-.07-.19,1.33-.49.07.19-1.33.49ZM287.73,157.33c-.23-.42-.45-.83-.68-1.25l.18-.1c.23.42.45.83.68,1.25l-.18.1ZM204.85,156.79l-.07-.19,1.33-.49.07.19-1.33.49ZM207.51,155.8l-.07-.19,1.33-.49.07.19-1.33.49ZM286.38,154.83c-.23-.42-.45-.84-.67-1.25l.18-.1c.22.41.45.83.67,1.25l-.18.1ZM210.18,154.81l-.07-.19,1.34-.5.07.19-1.34.5ZM212.81,153.65l-.09-.18c.35-.18.78-.4,1.27-.65l.09.18c-.49.25-.91.47-1.27.65ZM215.34,152.36l-.09-.18c.4-.2.82-.41,1.27-.64l.09.18c-.45.22-.87.44-1.27.64ZM285.04,152.32c-.23-.42-.45-.84-.67-1.25l.18-.09c.22.41.44.83.67,1.25l-.18.1ZM217.88,151.08l-.09-.18c.41-.2.84-.41,1.27-.63l.09.18c-.44.22-.86.42-1.27.63ZM220.43,149.84l-.09-.18c.42-.2.84-.41,1.28-.62l.09.18c-.44.21-.86.41-1.28.62ZM283.71,149.81c-.23-.43-.45-.85-.66-1.26l.18-.09c.21.41.43.83.66,1.26l-.18.09ZM222.99,148.61l-.09-.18c.42-.2.85-.4,1.29-.6l.09.18c-.44.2-.86.4-1.28.6ZM225.56,147.41l-.08-.18c.43-.2.86-.39,1.29-.59l.08.18c-.44.2-.87.4-1.29.59ZM282.4,147.29c-.22-.44-.44-.86-.64-1.27l.18-.09c.2.41.42.83.64,1.27l-.18.09ZM228.15,146.23l-.08-.18c.43-.19.86-.39,1.3-.58l.08.19c-.44.19-.87.39-1.3.58ZM230.74,145.09l-.08-.19c.43-.19.87-.38,1.3-.56l.08.19c-.44.19-.87.37-1.3.56ZM281.12,144.75c-.23-.47-.44-.9-.61-1.28l.18-.09c.18.38.38.81.61,1.28l-.18.09ZM233.34,143.97l-.08-.19c.44-.18.87-.37,1.31-.55l.08.19c-.44.18-.87.36-1.31.55ZM235.97,142.89l-.08-.19c.44-.18.88-.35,1.32-.53l.07.19c-.44.17-.88.35-1.32.53ZM279.92,142.17c-.2-.44-.43-.85-.68-1.22l.17-.12c.26.38.5.8.7,1.25l-.18.08ZM238.61,141.85l-.07-.19c.44-.17.89-.34,1.33-.5l.07.19c-.44.17-.88.33-1.33.5ZM241.26,140.85l-.07-.19c.45-.16.89-.32,1.34-.48l.07.19c-.44.16-.89.31-1.34.48ZM243.94,139.91l-.06-.19c.45-.15.9-.3,1.35-.44l.06.19c-.45.14-.89.29-1.35.44ZM278.34,139.9c-.33-.31-.7-.59-1.11-.84l.1-.17c.42.25.8.54,1.14.86l-.14.15ZM246.64,139.05l-.06-.19c.46-.14.91-.27,1.36-.4l.06.19c-.45.13-.9.26-1.36.4ZM275.97,138.45c-.41-.16-.86-.31-1.33-.44l.05-.2c.49.13.94.28,1.36.44l-.08.19ZM249.36,138.27l-.05-.2c.47-.12.94-.24,1.38-.34l.05.2c-.44.1-.9.22-1.37.34ZM273.27,137.71c-.43-.08-.9-.15-1.4-.21l.02-.2c.5.06.97.13,1.41.21l-.04.2ZM252.12,137.63l-.04-.2c.48-.1.95-.19,1.4-.26l.03.2c-.44.07-.91.16-1.39.26ZM270.47,137.37c-.44-.03-.91-.07-1.41-.09v-.2c.51.03.99.06,1.43.09l-.02.2ZM267.64,137.21c-.46-.02-.93-.03-1.42-.04v-.2c.49.01.96.02,1.42.04v.2ZM254.91,137.17l-.02-.2c.49-.06.97-.1,1.42-.12v.2c-.43.02-.9.06-1.4.12ZM264.81,137.14c-.46,0-.93-.01-1.42-.02v-.2c.49,0,.96.01,1.42.02v.2ZM261.98,137.1l-1.42-.02v-.2s1.42.02,1.42.02v.2ZM259.14,137.06c-.46,0-.94-.02-1.42-.03v-.2c.48.01.96.02,1.42.03v.2Z"/>
      <path class="cls-6" d="M292.98,179.9s12.14-3.49,13.48-4.42.41-5.58,0-6.51-.49-2.22-1.24-2.23-1.96-.25-4.34.89-6.6,2.58-7.9,2.79-3.06,2.48-3.06,2.48l3.06,7Z"/>
      <path class="cls-9" d="M277.31,115.22s.83,3.2,1.03,9.82c.21,6.62.21,11.37.52,12.61s3.4,9.15,3.4,9.15c0,0-.2,5.84.52,7.9s1.76,6.68,1.76,6.68c0,0-.72-6.68-.83-7.71s-.93-8.57-.72-11.36-2.07-17.89-2.07-17.89c0,0-1.24-5.27-3.62-9.2Z"/>
      <polygon class="cls-12" points="192.65 138.33 232.24 123.49 247.64 115.22 234.41 117.8 224.9 120.9 190.17 137.11 192.65 138.33"/>
      <polygon class="cls-3" points="232.65 120.39 225.83 123.28 191.01 137.52 192.65 138.33 232.24 123.49 232.65 120.39"/>
      <path class="cls-3" d="M247.64,115.22l3.93-19.64,4.24-21.81s.9-3.2-.9-2.79-12.06,3.17-12.06,3.17c0,0-1.65.34-2.21,3.31s-8.41,46.03-8.41,46.03l15.4-8.27Z"/>
      <path class="cls-12" d="M247.7,115.28l3.87-19.5,4.17-21.65s.88-3.18-.88-2.77-11.88,3.15-11.88,3.15c0,0-1.63.34-2.17,3.28s-8.28,45.7-8.28,45.7l15.17-8.21Z"/>
      <path class="cls-5" d="M193.68,111.91s5.51,2.83,7.06,3.03,2.41-.03,2.86-.65,2.62-4.13,2.62-4.13c0,0,1.69-3.07,3.07-2.76s3.2.93,3.65,1.34,2.21,2.52,2,3.34-1.1,1.17-1.48,1.14-2.1-.83-2.55-1.17c0,0-.48.79-.69.96,0,0,3.76.1,4.93.59,0,0,1.9-.21,2.48.76,0,0,1.69-.34,2.62.66s1.1,1.13,1.1,1.13c0,0,2.89.1,3.31.28,0,0,1.9-.45,2.24-.31s2.55-.24,2.58.31-1.45,2.17-2.55,2.38-1.93.28-1.93.28h-1.07s.86,1.31.67,1.96-2.12,1.14-2.43.86l-.31-.28s.45,1.55-.34,1.72-2.1.24-2.62-.41-1.41-2.27-1.41-2.27c0,0-2.31,1.14-3.1,1.17,0,0-2.48,1.45-3.2,1.48s-15.19,1.41-15.19,1.41l-10.23-4.2s-2.72-10.96,2.76-9.99,5.17,1.38,5.17,1.38Z"/>
      <path class="cls-14" d="M213.25,109.81s-1.03-.03-.9.62.41,2.14.72,2.14,1.53.12,1.53.12c0,0,.63-1.04-.32-2.28,0,0-.52-.91-1.04-.6Z"/>
      <path class="cls-14" d="M220.83,119.73s-1.14-.34-1,.83,0,2.3,1,2.45,1.22.24,1.16-.42-.16-2.54-1.16-2.85Z"/>
      <path class="cls-14" d="M226.9,116.12s2.65-.61,2.93-.06-.48.8-.48.8c0,0,.36-.95-2.44-.74Z"/>
      <path class="cls-4" d="M218.01,114.81s1.24,1.76,1.65,2.48,1.03,1.79,1.03,1.79l.62.61s.03-.71-.17-1.13-1.86-2.51-1.93-2.73-1.21-1.02-1.21-1.02Z"/>
      <path class="cls-4" d="M229.26,116.5s-.09-.09-.14-.14c-.02-.01-.05-.03-.07-.04,0,0,0,0-.01,0-.43.02-1.35.51-1.76.54-.55.05-4.79.39-4.79.39,1.34.96,1.45,1.83,1.45,1.83,0,0,1.37-.03,3-.28,1.62-.24,2.27-1.73,2.33-2.3,0,0,0,0,0,0Z"/>
      <path class="cls-4" d="M208.26,111.63s-1.38,3.45-2.21,3.76-2.21,2.69-2.38,3.41-.62,1.65-.62,1.65l7.36,2.85s1.87.08,3.97-1.54c0,0,2.21-.17,3.1-1.17l-.31-.68s-1.94-1.21-2.37-2.07c0,0-3.18-.19-3.94-.66s-1.14-2.44-1.14-2.44c0,0,1.69-2.24,1.17-2.76,0,0-1.86.65-2.65-.34Z"/>
      <path class="cls-4" d="M203.45,127.77s2.01.49,2.94.5,3.49-.25,3.9-.4,1.97-.45,1.53-.87-1.35-.85-1.35-.85c0,0-2.52,1.39-6.54,1.34l-.49.28Z"/>
      <path class="cls-14" d="M210.27,122.97s2.08-.29,3.35.7c0,0,.7.44.56.72s-.37.44-.66.3-3.14-1.34-3.24-1.72Z"/>
      <path class="cls-4" d="M211.55,126.78s1.95.52,2.52.43,1.51-.71,1.43-.98-2.41-.87-2.41-.87l-2.46.87.91.55Z"/>
      <path class="cls-14" d="M214.19,124.66s1.91.65,1.75,1.01-.28.56-.36.56-2.05-.49-2.31-.62.18-1.15.92-.94Z"/>
      <path class="cls-14" d="M113.31,144.33s.47,2.77,3.41,5.88,9.15,9.92,10.54,12.87,5.12,4.5,5.58,5.27,3.32,3.72,2.82,5.89-3.29,4.81-3.13,5.74,1.09,2.33,1.09,2.33c0,0,6.73-1.4,6.51-3.88s0-12.87,0-12.87l5.99,6.98s4.7-4.17,7.96-9.22,9.61-13.4,12.4-14.49,33.98-17.31,33.98-17.31c0,0-5.44-5.78-13.58-10.52-8.15-4.74-16.83-5.77-16.83-5.77,0,0-10.36-13.85-9.99-15.25s-6.14-11.94-6.76-13.49-19.38-17.99-22.48-17.83-6.98,1-6.82,2.67,3.41,7.25.31,7.1-24.19-10.86-28.84-9.77-13.64,7.6-13.8,14.58,31.63,61.11,31.63,61.11Z"/>
      <path class="cls-2" d="M130.52,55.2s2.72-.14,3.55-.55,2.1-1.03,2.48-.9.76.34,1,.17.52-.41.52-.41c0,0-.24,1.93-1.34,2.17,0,0,1.36,1.74-.89,2.89,0,0-3.69-1.17-5.31-3.37Z"/>
      <path class="cls-2" d="M135.93,50.13s2.21-1.03,2.79-.45,1.24.69.38.72-1.72-.45-3.17-.28Z"/>
      <path class="cls-2" d="M125.11,37.07s4.48-2.31,6.03-2.17,5.41,1.08,5.41,1.08l.28,1.47s-4.58-1.65-5.86-1.45-5.86,1.07-5.86,1.07Z"/>
      <polygon class="cls-2" points="139.07 37.14 139.52 35.56 140.41 34.9 140.09 36.51 139.07 37.14"/>
      <path class="cls-2" d="M113.16,58.92s6.33,4.27,9.92,4.93c0,0-1.63,1.02-2.06,2.75,0,0-4.66-5.57-7.86-7.67Z"/>
      <path class="cls-10" d="M256.97,145.8s6.15-5.03,7.7-5.05,6.99,1.02,8.95,3.16,2.65,2.85,2.65,2.85c0,0-1.49-3.23-3.36-5.08s-5.62-3.59-6.87-3.34-6.14,2.7-7.03,4.1c-.14.23-.29.46-.44.71-.79,1.28-1.58,2.66-1.58,2.66Z"/>
      <polygon class="cls-10" points="260.5 142.3 254.05 148.09 251.39 152.19 258.27 145.3 265.52 139.73 260.5 142.3"/>
      <path class="cls-1" d="M277.21,221.43c-.03-.08-.19-.55-.46-1.35l.19-.07c.27.8.43,1.28.46,1.35l-.19.06ZM276.28,218.73l-.46-1.35.19-.07.46,1.35-.19.07ZM275.36,216.04l-.46-1.34.19-.07.46,1.34-.19.07ZM274.44,213.35l-.46-1.34.19-.07.46,1.34-.19.07ZM273.51,210.67l-.46-1.34.19-.07.46,1.34-.19.07ZM272.59,207.98l-.46-1.34.19-.07.46,1.34-.19.07ZM271.65,205.3l-.47-1.34.19-.07.47,1.34-.19.07ZM270.72,202.62l-.47-1.34.19-.07.47,1.34-.19.07ZM269.79,199.94l-.47-1.34.19-.07.47,1.34-.19.07ZM268.85,197.26l-.47-1.34.19-.07.47,1.34-.19.07ZM267.9,194.59l-.47-1.34.19-.07.47,1.34-.19.07ZM266.96,191.91l-.48-1.34.19-.07.48,1.34-.19.07ZM266.01,189.23l-.48-1.34.19-.07.48,1.34-.19.07ZM265.05,186.56l-.48-1.34.19-.07.48,1.34-.19.07ZM264.09,183.89l-.48-1.33.19-.07.48,1.33-.19.07ZM263.12,181.23c-.16-.45-.33-.89-.49-1.33l.19-.07c.16.44.32.88.49,1.33l-.19.07ZM262.14,178.56c-.17-.45-.33-.89-.49-1.33l.19-.07c.16.44.33.88.49,1.33l-.19.07ZM261.15,175.9c-.17-.45-.34-.9-.5-1.33l.19-.07c.16.43.33.88.5,1.33l-.19.07ZM260.14,173.25c-.17-.45-.34-.9-.51-1.33l.19-.07c.17.43.34.87.51,1.33l-.19.07ZM259.11,170.6c-.18-.46-.36-.9-.53-1.32l.19-.08c.17.42.35.86.53,1.32l-.19.07ZM258.05,167.96c-.2-.48-.39-.92-.56-1.31l.19-.08c.17.39.36.83.56,1.31l-.19.08ZM256.89,165.37c-.22-.43-.45-.85-.68-1.23l.17-.1c.23.39.47.81.68,1.25l-.18.09ZM255.43,162.97c-.29-.39-.59-.75-.9-1.08l.15-.14c.32.33.62.7.92,1.09l-.16.12ZM253.49,160.96c-.38-.29-.78-.54-1.18-.75l.09-.18c.41.21.82.47,1.21.77l-.12.16ZM246.93,160.04l-.09-.18s.54-.28,1.38-.44l.04.2c-.81.15-1.31.42-1.32.42ZM251.01,159.71c-.45-.12-.91-.18-1.38-.2v-.2c.49.02.96.08,1.43.21l-.05.2Z"/>
      <path class="cls-5" d="M160.08,126.18s11.69,2.69,16.24,2.07,16.65-4.75,16.65-4.75l5.41-3.1s1.01-.8,2.61-.31c0,0,4.73,1.12,5.17,1.32s1.78.75,1.78.75l2.07.7,3.7,1.76s-1.19,2.09-3.23,1.55c0,0,.21.13-1.71.8s-4.83.54-4.83.54c0,0-2.92,1.32-3.72,1.27l-3.02,3.36s-.14,2.59-7.03,4.99h-29.7s-.39-10.94-.39-10.94Z"/>
      <path class="cls-5" d="M192.99,129.36s4.2-2.98,4.65-3.25,1.27-.93,2.24-1,4.51-.86,5.38-.65,1.52.28,1.52.28c0,0,2.91-.04,3.31.69s.26.95-.52,1.24-3.08.91-5.62.83c0,0-2.01,1.27-3.72,1.27l-3.02,3.36-4.2-2.76Z"/>
      <path class="cls-13" d="M120.6,144.33s-13.64,62.68-16.95,79.22c-3.31,16.54-7.24,43.21-7.24,43.21l3.51,1.24,4.55-1.24,16.13-84.55,8.06-39.9h-7.65l-.41,2.03Z"/>
      <path class="cls-13" d="M219.21,142.3l3.51,140.37,4.13,1.24,2.69-2.27v-95.51s-1.65-41-2.27-41.8-8.06-2.03-8.06-2.03Z"/>
      <path class="cls-14" d="M206.74,125.21s2.14.9,2.58,1,1.21-.21,1.17-.5-.62-.98-1.88-1.15-1.84.03-1.88.65Z"/>
      <path class="cls-4" d="M206.77,124.73s-.9-.54-2.45-.31-3.31.24-3.88.32-.09-.66-1.54.62-5.92,4-5.92,4c0,0,6.06-5.25,6.63-5.25s4.7-.34,5.17-.27,1.98.89,1.98.89Z"/>
      <path class="cls-4" d="M203.05,124.5s-2.88.12-4.15.87-1.92.93-1.92.93l2.89-1.93,3.17.14Z"/>
      <path class="cls-14" d="M209.84,126.55l1.36.97s1.32-.02,1.15-.55c0,0-.8-.72-1.92-.74l-.6.31Z"/>
      <path class="cls-4" d="M229.05,116.32s.48.24.29.54-.39.89-1.02,1.31-1.15.19-1.15.19l1.88-2.03Z"/>
      <path class="cls-14" d="M222.28,119.25s.62,2,1,2,1.55.34,1.58,0-.69-2.76-1.62-2.69-1.05.42-.96.69Z"/>
      <polygon class="cls-15" points="105.8 135.97 113.89 143.43 111.5 133.88 105.8 135.97"/>
      <path class="cls-13" d="M98.07,144.33s43.41-5.34,136.65.97l3.51-.97-1.24-3.89s-72.15-7.86-131.9-1.86l-7.03,2.23v3.52Z"/>
      <path class="cls-5" d="M121.02,66.59l3.03,4.38s2.38,5.84,1.48,6.86-6.77-2.94-6.77-2.94l2.26-8.3Z"/>
      <path class="cls-2" d="M124.05,70.97s-1.44-4-.97-7.12l-2.72.51.39,1.91,3.3,4.7Z"/>
      <path class="cls-15" d="M200.75,114.94s-4.77-4.36-9.11-5.2-25.11-10.79-25.11-10.79c0,0-9.75-8.62-13.85-13.29,0,0,6.82,11.97,7.78,15.48s9.6,14.07,9.6,14.07l20.11,7.12s.37-7.49,10.58-7.39Z"/>
      <path class="cls-5" d="M190.17,137.11s-15.86,2.09-18.84.89-.61-1.84-.61-1.84l19.45.95Z"/>
      <path class="cls-15" d="M171.49,128.27s-2.93,8.44-.15,9.73c0,0-31.52,9.8-38.25,8.61s-27.72-7.08-31.49-14.49-23.58-37.38-21.75-43.14-.4-8.53,4.67-12.68,17.99-3.65,21.28,13.38,15.35,32.3,18.25,32.66,38.52,2.31,47.44,5.93Z"/>
      <path class="cls-13" d="M139.07,20.74s-.69,2.69-3.79,1.76c-3.1-.93-7.76-3.83-9.51-2.18-1.76,1.66-2.48,2.07-5.69,1.56-3.2-.52-4.34-1.04-5.58,1.34-1.24,2.38-1.86,4.03,0,6.41,1.86,2.38.96,3.51-1.17,4.75-2.14,1.24-4.1,2.38-3.27,4.45.82,2.06,3.51,2.58,1.03,6.51-2.48,3.93-6.93,5.48-3.41,8.68,3.51,3.21,6.71,4.03,4.18,6.72-1.82,1.94-4.7,1.73-5.93,2.54h0c-.45.3-.68.74-.55,1.48-.81,1.59-2.74,4.01-7.1,4.63-.62-.42-1.39-.49-2.59.14-2.59,1.34-4.22,6.46-8.05,3.54-3.84-2.92-8.39-6.02-4.56-17.5,3.82-11.47,7.03-7.75,10.85-17.16,3.83-9.4-1.55-20.15,6.2-21.6,7.76-1.45,16.95-7.75,21.19-6.31,4.24,1.45,13.79.94,17.75,10.24Z"/>
      <path class="cls-13" d="M98.28,69.39c-.78.11-1.64.16-2.59.14,1.2-.63,1.97-.56,2.59-.14Z"/>
      <path class="cls-13" d="M105.93,63.29s-.12.62-.55,1.47c-.13-.74.1-1.18.55-1.47Z"/>
    </g>
  </g>
</svg>