<?xml version="1.0" encoding="UTF-8"?>
<svg id="Camada_2" data-name="Camada 2" xmlns="http://www.w3.org/2000/svg" viewBox="0 0 991.39 649.63">
  <defs>
    <style>
      .cls-1 {
        fill: #e15a36;
      }

      .cls-1, .cls-2, .cls-3, .cls-4, .cls-5, .cls-6, .cls-7 {
        stroke-width: 0px;
      }

      .cls-2 {
        fill: #dce1e7;
      }

      .cls-3 {
        fill: #1f1e3f;
      }

      .cls-4 {
        fill: #51b0e4;
      }

      .cls-5 {
        fill: #272727;
      }

      .cls-6 {
        fill: #f4ae2e;
      }

      .cls-7 {
        fill: #853e31;
      }
    </style>
  </defs>
  <g id="Camada_2-2" data-name="Camada 2">
    <polygon class="cls-1" points="0 647.94 449.45 91.37 865.54 647.94 0 647.94"/>
    <path class="cls-1" d="M991.39,179.12v19.09h-199.74c-18.32,0-33.28,14.96-33.28,33.28v228.26h-20.9v-226.45c0-29.93,24.25-54.18,53.66-54.18h200.25Z"/>
    <path class="cls-6" d="M991.39,458.83v43.23H379.18c-24.21,0-43.97,19.76-43.97,43.97v102.02h-43.23v-102.02c0-48.17,39.03-87.2,87.2-87.2h612.21Z"/>
    <path class="cls-7" d="M700.54,405.49c-1.68,2.31-4.68,3.58-7.45,4.61-11.18,4.14-22.73,7.88-34.65,8.07-11.31.19-22.41-2.83-33.32-5.82-1.1-.3-2.23-.62-3.05-1.42-.68-.68-1.05-1.62-1.27-2.57-1.47-6.49,3.03-12.55,5.06-18.98.2-.66.39-1.33.54-1.99.8-3.68.54-7.46-.5-11.1h-.01c-1.59-5.54-4.97-10.73-9.11-14.68-7.02-1.28-14.05-2.57-21.07-3.85-1.5-.27-3.03-.55-4.37-1.28-4.97-2.71-5-9.71-4.44-15.34.64-6.33-.56-20.92-1.85-21.35-2.14-.71-7-2.19-7.91-4.26-3.99-9.1,10.41-17.47,9.41-27.36-.2-2.04-.9-3.98-1.46-5.95-.24-.81-.44-1.64-.6-2.46-.74-4.14.12-8.41,1.29-12.46,2.71-9.44,7.13-18.38,12.97-26.29.26-.37.54-.74.82-1.1,2.45,2.74,5.21,5.42,6.8,8.62.97,1.95,1.49,4.08,2.48,6.02,2.27,4.36,6.65,7.13,10.84,9.69,8.23,5.05,16.47,10.09,24.7,15.13,5.76,3.52,11.56,7.08,16.33,11.86,3.52,3.54,6.4,7.67,9.26,11.78,2.02,2.9,4.07,5.9,4.79,9.36.78,3.74-.12,7.61-1.21,11.27-3.55,11.82-9.38,23.73-7.36,35.91,2.5,15.1,16.18,25.65,22.66,39.52.36.76.72,1.56,1.35,2.11.6.53,1.37.76,2.13,1.02,2.79.91,5.53,1.99,8.19,3.25Z"/>
    <path class="cls-7" d="M555.43,277.29s.43,5.8-4.08,7.09c-4.51,1.29-6.02,1.07-6.02,1.07,0,0,.86,3.44-4.94,5.59-5.8,2.15-8.38-3.01-8.38-3.01,0,0-2.79,2.36-5.59.64-2.79-1.72-4.08-3.65-6.66-11.61,0,0-5.59,3.01-9.03-.86l-2.79-1.5-14.19.21s6.02-16.12,12.04-15.48c6.02.64,7.09,3.01,7.09,3.01,0,0,2.79-4.51,7.52-4.51s6.88,3.01,6.88,3.01c0,0,2.79-3.65,7.95-3.01,5.16.64,6.88,2.79,6.88,2.79,0,0,3.87-6.23,7.74-4.94s4.08,3.44,4.08,3.44c0,0,3.22-2.15,4.51-1.5,0,0,.64,6.66,1.5,11.61.86,4.94,3.01,7.95,3.01,7.95h-7.52Z"/>
    <path class="cls-2" d="M581.59,274.33v21.45l-5.4-5.4h-3.03v48.61s-4.41,5.8-30.2,5.8v5.59s-12.74-.93-16.55,8.04c-.38.88-.68,1.86-.85,2.95v.06s-22.17-11.13-31.83-15.82l-2.58-1.24v-68.79s.06-.64,2.58-.64l14.19-.21,2.79,1.5c3.44,3.87,9.03.86,9.03.86,2.58,7.95,3.87,9.89,6.66,11.61,2.79,1.72,5.59-.64,5.59-.64,0,0,2.58,5.16,8.38,3.01,5.8-2.15,4.94-5.59,4.94-5.59,0,0,1.5.21,6.02-1.07,4.51-1.29,4.08-7.09,4.08-7.09h17.52v2.9h2.79l4.47-4.48,1.39-1.39Z"/>
    <polygon class="cls-5" points="491.15 302.02 491.15 326.67 464.06 326.67 456.32 328.78 437.4 328.78 430.52 333.62 430.52 294.06 437.4 299.22 456.11 299.22 463.85 302.02 491.15 302.02"/>
    <path class="cls-7" d="M550.77,423.55c-1.85-.96-4.91-1.29-8.56-1.22-12.77.2-32.71,5.23-32.71,5.23l-1.43-9.38-5.16-3.52c-4.75-1.88-9.44-6.16-13.26-10.41-3.79-4.2-6.75-8.37-8.1-10.08-2.72-3.44,1.43-11.32,1.43-11.32-1.22-1.62-1.48-3.44-1.31-5.11v-.02c.32-3.05,2.05-5.61,2.05-5.61,0,0-2.89-1.43-2.6-6.31.29-4.87,5.59-7.45,5.59-7.45,0,0,2.87,1.15-2.87-3.58-2.52-2.08-3.46-4.37-3.73-6.31-.08-.62-.1-1.22-.07-1.74.08-1.74,1-3.42,2.58-4.16,1.71-.82,3.59-.37,7.13,1.17.31.13.79.36,1.4.64l2.58,1.24c9.66,4.69,31.82,15.82,31.82,15.82v-.06s.86-2.95.86-2.95c11.18,5.4,12.61,16.27,12.61,16.27l3.59,14.93v.02l8.16,33.91Z"/>
    <path class="cls-4" d="M737.74,461.1c-.2,18.92-22.58,55.03-22.58,55.03,0,0-7.31,17.63-15.91,30.96-8.6,13.33-.86,14.62-9.46,32.68-8.6,18.06-21.5,17.63-22.36,24.51-.86,6.88-2.15,9.89-8.6,18.92-6.45,9.03,2.58,6.02,3.01,11.61.43,5.59,0,14.82,0,14.82h-156.07c-.86-15.28,12.04-109.41,12.04-109.41-7.74-17.2-18.06-76.96-18.06-76.96,0,0-66.64-6.88-82.12-10.75-15.48-3.87-21.93-22.79-20.21-30.53,1.72-7.74,21.5-35.26,33.11-47.28,8.15-8.43,26.26-28.7,36.33-40.02-.9,1.22-1.5,2.28-1.5,2.89,0,2.29,4.01,10.32,8.6,10.89,4.59.57,6.16,0,6.16,0,.26,1.93,1.21,4.23,3.73,6.31,5.73,4.73,2.87,3.58,2.87,3.58,0,0-5.3,2.58-5.59,7.45-.29,4.87,2.6,6.31,2.6,6.31,0,0-1.73,2.57-2.05,5.61,0,0-18.03,29.21-15.88,30.93,2.15,1.72,23.86-4.4,23.86-4.4,3.82,4.25,8.5,8.54,13.26,10.41l5.16,3.52,1.43,9.38s19.95-5.03,32.71-5.23c3.65-.07,6.71.26,8.56,1.22l-8.16-33.91v-.02l24.84-8.92c15.42-5.49,41.13-5.33,58.44-4.4h.01c1.04,3.63,1.3,7.42.5,11.1-.14.67-.33,1.34-.54,1.99-2.03,6.43-6.53,12.49-5.06,18.98.21.94.59,1.89,1.27,2.57.81.8,1.95,1.12,3.05,1.42,10.92,2.99,22.01,6.01,33.32,5.82,11.92-.19,23.47-3.93,34.65-8.07,2.77-1.03,5.77-2.31,7.45-4.61,7.26,3.37,13.96,7.93,19.74,13.46,4.56,4.37,7.37,11.64,11.47,16.45.97,1.13,2.25,2.35,3.7,2.05.67-.14,1.16-.54,1.49-1.07.81,9.06.87,17.88.8,24.72Z"/>
    <path class="cls-7" d="M491.15,326.67v17.7c-.61-.29-1.09-.51-1.4-.64-3.54-1.54-5.42-1.99-7.13-1.17-1.58.74-2.5,2.41-2.58,4.16-.02.53-.01,1.12.07,1.74,0,0-1.58.57-6.16,0-4.59-.57-8.6-8.6-8.6-10.89,0-.61.61-1.67,1.5-2.89.01-.02.02-.04.04-.05,3.57-4.01,6.11-6.89,6.84-7.72.05-.06.08-.1.12-.13h0s.06-.06.07-.08c.01-.01.02-.02.02-.02h17.2Z"/>
    <path class="cls-5" d="M616.78,361.63s14.37-4.64,25.06-12.92l-15.43,38.69s-1.8-18.33-9.63-25.77Z"/>
    <path class="cls-5" d="M545.32,285.46s.86,3.44-4.94,5.59c-5.8,2.15-8.38-3.01-8.38-3.01,0,0-2.79,2.36-5.59.64-2.79-1.72-4.08-3.65-6.66-11.61,0,0-5.59,3.01-9.03-.86l-2.79-1.5s4.5,8.96,7.48,8.96,5.27,7.21,10.15,7.9,16.34,2.17,19.78,0c1.58-1,2.85-3.83,3.77-6.61-2.78.63-3.77.49-3.77.49Z"/>
    <g>
      <path class="cls-3" d="M501.18,471.13l-1.11-6.07c.24,1.36.61,3.44,1.1,6.07h.02Z"/>
      <path class="cls-5" d="M419.2,444.19c-2.98,1.92-4.32,2.18-4.1,7.51.82.31,1.66.58,2.53.8,15.4,3.85,81.47,10.68,82.11,10.75l-3.71-20.21-76.82,1.15"/>
    </g>
    <path class="cls-5" d="M559.08,490.62s12.04,29.24,12.04,32.68,9.75,1.15,20.06-9.17c10.32-10.32,50.65-43,50.65-43,0,0-53.52,46.44-57.53,38.98-4.01-7.45-17.2-4.59-25.22-19.49Z"/>
    <path class="cls-5" d="M555.07,596.11s25.22-11.47,61.71-20.64c36.49-9.17,80.46-58.47,80.46-58.47-9.17,24.08-10.89,45.86-10.89,45.86,0,0,2.29,21.78-2.29,7.45-4.59-14.33-12.61,3.44-13.76-2.58-1.15-6.02-8.03,0-8.03,0,0,0-27.52,24.36-28.66,20.92,0,0-69.56,23.79-84.51,12.61-14.95-11.18-23.55-40.64-23.55-40.64,0,0,16.78,27.52,29.52,35.48Z"/>
    <polygon class="cls-5" points="493.73 345.61 522.97 353.61 525.54 361.43 493.73 345.61"/>
    <path class="cls-5" d="M752.93,447.87c.22-6.86.42-14.24-2.22-20.05-1.62-3.56-4.36-7.03-7.52-9.99-2.29-5.67-4.11-11.42-6.27-17.01-.25-2.8-.67-5.57-1.45-8.27-.47-1.64-1.08-3.23-1.76-4.8.1-.02.17-.06.18-.13,2.08-14.36.81-28.52-2.42-42.34.77-5.86.82-11.76-.61-17.74-2.07-8.66-6.3-16.89-10.61-24.9-2.7-24.6-13.12-48.72-28.56-67.82-4.08-5.05-8.84-9.97-15.02-11.97-2.79-.91-5.77-1.16-8.71-1.41-18.85-1.62-38.48-3.13-56.13,3.68-5.69,2.19-10.98,4.24-17.1,4.63.38,5.58-7.13,11.29-9.73,16.04-3.59,6.52-5.85,13.78-6.51,21.2-.2,2.36-.24,4.85.73,7.02.27.6.61,1.16.99,1.7l1.39-1.39v3.13c.51.6,1.04,1.18,1.52,1.8.75.94,1.41,1.95,1.98,2.99-.24-.81-.44-1.64-.6-2.46-.74-4.14.12-8.41,1.29-12.46,2.71-9.44,7.13-18.38,12.97-26.29.26-.37.54-.74.82-1.1,2.45,2.74,5.21,5.42,6.8,8.62.97,1.95,1.49,4.08,2.48,6.02,1.75,3.35,4.74,5.76,7.94,7.86,3.6,6.66,8.11,12.65,14.01,16.57,10.58,7.02,22.64,12.51,34.56,17.63,1.6,2.08,3.11,4.23,4.61,6.39,2.02,2.9,4.07,5.9,4.79,9.36.78,3.74-.12,7.61-1.21,11.27-3.55,11.82-9.38,23.73-7.36,35.91,2.5,15.1,16.18,25.65,22.66,39.52.36.76.72,1.56,1.35,2.11.6.53,1.37.76,2.13,1.02,2.79.91,5.53,1.99,8.19,3.25,7.26,3.37,13.96,7.93,19.74,13.46,4.56,4.37,7.37,11.64,11.47,16.45.49.58,1.06,1.17,1.69,1.58.71,1.95,1.51,3.8,2.63,5.45.62,2.3,1.38,4.53,2.41,6.59.92,1.83,2.09,3.47,3.44,4.92-.1,1.36-.21,2.71-.32,4.08-.29,3.37,5.22,4.64,5.54.85.02-.24.04-.48.06-.71,3.45,1.99,7.42,3.1,11.47,3.22,0,.43-.03.88-.09,1.35.05-.37,5.54-.59,5.69-1.81.97-7.56-5.23-10.48-11.35-13.04ZM634.06,278.57c-5.27-3.16-9.46-7.94-12.9-13.4,7.75,4.75,15.5,9.5,23.25,14.24,5.76,3.52,11.56,7.08,16.33,11.86.55.55,1.05,1.14,1.57,1.71-9.67-4.36-19.26-9.02-28.24-14.41ZM751.25,434.49c.38,4.22.38,8.54.38,12.83-1.29-.53-2.54-1.07-3.71-1.64.18-8.59-.58-17.09-3.71-25.27,3.78,3.96,6.56,8.85,7.04,14.08ZM724.53,342.31c.84-6.38.41-13.5-3.93-18.24.15-1.86.25-3.73.31-5.6,1.72,4.42,3.33,8.89,4.76,13.4,1.38,9.68-.81,19.23-3.2,28.78-.45-6.13,1.26-12.23,2.06-18.34ZM737.71,431.11c-.08-4.4-.17-8.8-.25-13.2.19.46.38.93.57,1.39,3.1,7.23,4.18,14.61,4.32,22.12-2.06-2.63-3.1-5.86-4.26-9.21-.13-.37-.25-.73-.38-1.1ZM731.99,384.1c-2.08-4.09-4.47-8.07-6.36-12.18,1.45-7.01,3.52-13.99,4.91-21.01,2.04,10.89,2.75,21.98,1.45,33.19ZM741.64,451.18c-1.13-1.72-1.91-3.59-2.53-5.53.23.17.46.34.71.5.75.49,1.58.94,2.46,1.37-.05,1.41-.13,2.83-.22,4.25-.14-.2-.29-.39-.42-.6ZM747.32,456.67c.18-2.26.34-4.52.45-6.77,1.33.56,2.64,1.14,3.88,1.79,0,.55.01,1.1.02,1.64.01.51,1.15,2.24,1.13,1.75-.02-.89-.02-1.81,0-2.75,2.96,1.74,5.26,3.99,5.76,7.41-.03,0-.07-.01-.1-.01-3.96.01-7.86-1.03-11.15-3.07Z"/>
    <path class="cls-4" d="M335.45,0l-.24,414.86c0,48.17-38.79,87.2-86.95,87.2H117.8l34.91-43.23h95.29c24.46,0,43.98-19.76,43.98-43.97V0h43.47Z"/>
    <path class="cls-6" d="M758.37.48v144.07c0,29.41-24.25,53.66-54.18,53.66h-368.86v-19.09h368.61c18.57,0,33.53-14.97,33.53-33.28V.48h20.9Z"/>
  </g>
</svg>